PathFileType	4	(X/Y/Z)	D:\Share\Shared_Data\Ergonomics\Sit To Stand Pertubation\S2\Unperturbed.trc
DataRate	CameraRate	NumFrames	NumMarkers	Units	OrigDataRate	OrigDataStartFrame	OrigNumFrames	
100	100	9	18	m	100	2022	251
Frame#	Time	R_Toe			R_ASIS			R_Pelvis			V_Sacral			L_Pelvis			L_ASIS			Clavical			R_Acromium			L_Acromium			Sternum			Torso			R_Thigh_Med			R_Thigh_Lat			R_Thigh			R_Shank_Med			R_Shank_Lat			R_Shank			R_Heel			
		X1	Y1	Z1	X2	Y2	Z2	X3	Y3	Z3	X4	Y4	Z4	X5	Y5	Z5	X6	Y6	Z6	X7	Y7	Z7	X8	Y8	Z8	X9	Y9	Z9	X10	Y10	Z10	X11	Y11	Z11	X12	Y12	Z12	X13	Y13	Z13	X14	Y14	Z14	X15	Y15	Z15	X16	Y16	Z16	X17	Y17	Z17	X18	Y18	Z18	

2022	20.21	0.44490848	0.066575172	0.14204407	-0.0047428155	0.64465167	0.14912717	-0.084578362	0.64013818	0.1874854	-0.21486728	0.57251117	0.031418753	-0.12421077	0.63400946	-0.14913354	-0.028576309	0.65083966	-0.12151448	0.060669079	1.0065608	0.013900078	-0.026595699	1.0424086	0.2192502	-0.037092579	1.0524701	-0.17014194	0.079444984	0.84262964	0.011239488	0.062136887	0.96563818	-0.10216094	0.3959296	0.50041049	0.11723389	0.36854175	0.50767249	0.22176106	0.20777396	0.62020215	0.17114481	0.30901306	0.10906326	0.10192042	0.2876712	0.10207926	0.193534	0.35307739	0.35584012	0.23234552	0.20701129	0.061431656	0.13926904
2023	20.22	0.44488608	0.066594948	0.14206081	-0.0039719393	0.64430542	0.1491713	-0.083816856	0.64032941	0.18744963	-0.21462053	0.57320386	0.031434502	-0.1235497	0.63441772	-0.14919705	-0.027608236	0.65069867	-0.1214978	0.066501495	1.0044854	0.013611454	-0.019992331	1.0418627	0.21899789	-0.030555262	1.0515481	-0.17042615	0.083192703	0.84042883	0.011171892	0.06747805	0.96351996	-0.10231846	0.39580792	0.50039029	0.11745153	0.36838812	0.50762878	0.22197005	0.207688	0.62021594	0.17129027	0.30893564	0.10904723	0.10193964	0.28762994	0.10206136	0.19353607	0.35294376	0.35580078	0.23247905	0.20699626	0.061392818	0.13926445
2024	20.23	0.44486255	0.066611374	0.14207944	-0.0031059825	0.64396466	0.14922142	-0.082987534	0.64051361	0.18742166	-0.21434128	0.57394366	0.031460379	-0.12283395	0.63484674	-0.14925941	-0.026580587	0.6505191	-0.12150162	0.072544914	1.0022579	0.013300152	-0.013130514	1.0412155	0.2187305	-0.023764376	1.0505042	-0.1707296	0.0871008	0.83811591	0.011107645	0.073010612	0.96126385	-0.10248183	0.39569397	0.5003649	0.11769968	0.36824225	0.50757962	0.22220886	0.20760838	0.62022559	0.17146021	0.3088732	0.1090366	0.10196277	0.28758752	0.10204218	0.1935385	0.35281122	0.35575446	0.23263271	0.20698206	0.061353466	0.13925705
2025	20.24	0.44483884	0.066623863	0.1420999	-0.0021324077	0.64363336	0.14927028	-0.082091705	0.64068549	0.18740192	-0.21402095	0.57473914	0.031497431	-0.12205452	0.63530444	-0.14931184	-0.0254729	0.65030457	-0.12152754	0.0788069	0.99988135	0.012964934	-0.0060102077	1.0404578	0.21844276	-0.016720518	1.0493339	-0.17105362	0.091169548	0.83568866	0.011050067	0.07874028	0.95886841	-0.10264867	0.39559244	0.50033337	0.11797925	0.36810941	0.50752432	0.22247841	0.20753874	0.6202251	0.17165224	0.30883633	0.1090325	0.10198855	0.28754504	0.10202196	0.19354184	0.3526814	0.35569971	0.23280652	0.20696896	0.061314419	0.13924797
2026	20.25	0.44481558	0.066633179	0.14212155	-0.0010423464	0.64331366	0.14931267	-0.081125916	0.64084216	0.1873868	-0.2136505	0.57559912	0.031545513	-0.12120284	0.63579822	-0.14934578	-0.024262014	0.65006262	-0.12157349	0.085292824	0.99735895	0.012605771	0.001368517	1.0395828	0.21813055	-0.0094236555	1.0480348	-0.17139882	0.095393112	0.83314435	0.011002191	0.084669411	0.95633325	-0.10281778	0.39550873	0.50029523	0.11829041	0.36799442	0.5074613	0.22277982	0.20748386	0.62020844	0.17186438	0.30883551	0.10903687	0.10201618	0.28750327	0.10200024	0.19354727	0.35255728	0.35563376	0.23300096	0.20695673	0.061275711	0.13923866
2027	20.26	0.44479236	0.066641731	0.1421436	0.00016247781	0.64299915	0.14934682	-0.080082161	0.64098193	0.18736772	-0.21322035	0.57653192	0.031603701	-0.12026908	0.63633368	-0.1493522	-0.022926521	0.64980188	-0.12163546	0.092002869	0.99469446	0.012224473	0.0090049105	1.0385862	0.21779147	-0.0018736629	1.0466074	-0.17176482	0.099759766	0.83048285	0.010965697	0.090797066	0.9536604	-0.10298906	0.39544882	0.50024957	0.1186328	0.36790186	0.50738812	0.22311371	0.20744962	0.62017212	0.17209671	0.30887793	0.10905266	0.10204652	0.28746216	0.10197563	0.19355716	0.35244394	0.35555328	0.2332173	0.20694435	0.061236538	0.1392314
2028	20.27	0.44476782	0.066653824	0.14216574	0.0014600327	0.6426684	0.14937418	-0.07895031	0.64110431	0.18733386	-0.21271957	0.5775448	0.031670771	-0.11924053	0.63691443	-0.14932152	-0.021448391	0.64953033	-0.12170857	0.098931931	0.9918916	0.011824356	0.016896645	1.0374664	0.21742422	0.005928298	1.0450531	-0.17215114	0.10425306	0.82771014	0.010938943	0.097119904	0.95085431	-0.10316324	0.39541882	0.50019492	0.11900631	0.3678364	0.50730164	0.22347981	0.20744218	0.62011499	0.17235121	0.3089635	0.10908278	0.10208257	0.28742004	0.10194562	0.1935751	0.35234808	0.35545508	0.23345667	0.20692973	0.06119474	0.13922882
2029	20.28	0.44473981	0.066675682	0.14218863	0.0027985556	0.64227582	0.14939998	-0.077720573	0.64121033	0.18727808	-0.21213533	0.57864478	0.031745012	-0.1181007	0.63754034	-0.14924606	-0.019813452	0.64925452	-0.1217866	0.10607095	0.98895776	0.011409388	0.025039389	1.0362256	0.21702678	0.013978113	1.0433759	-0.17255782	0.10885409	0.82484076	0.010916543	0.10363303	0.94792303	-0.10334192	0.3954248	0.500129	0.11941061	0.3678031	0.50719882	0.22387637	0.20746786	0.62003766	0.17263033	0.30907916	0.10912733	0.10212894	0.28737344	0.10190668	0.19360609	0.35227612	0.35533774	0.23371899	0.20690996	0.061146549	0.13923306
2030	20.29	0.44470541	0.06671505	0.14221411	0.0040995216	0.64175281	0.14943431	-0.076384697	0.64130408	0.1872012	-0.21145319	0.57983838	0.031824545	-0.11682907	0.63820795	-0.14912332	-0.018013311	0.64897668	-0.12186124	0.1134076	0.98590637	0.01098396	0.03342667	1.0348702	0.21659528	0.0222673	1.0415828	-0.1729856	0.11354509	0.821896	0.010891146	0.11033043	0.94488007	-0.10352771	0.39547379	0.50004959	0.11984418	0.36780771	0.50707794	0.2243009	0.20753328	0.61994318	0.17293629	0.30919351	0.1091801	0.1021911	0.28731744	0.10185491	0.1936561	0.35223178	0.35520203	0.23400302	0.20688168	0.06108699	0.13924542
